<mxfile host="app.diagrams.net" agent="Mozilla/5.0 (Windows NT 10.0; Win64; x64) AppleWebKit/537.36 (KHTML, like Gecko) Chrome/138.0.0.0 Safari/537.36" version="26.0.16">
  <diagram name="Page-1" id="3zVICF_yQT2SA2mzAkds">
    <mxGraphModel dx="2153" dy="1368" grid="1" gridSize="10" guides="1" tooltips="1" connect="1" arrows="1" fold="1" page="1" pageScale="1" pageWidth="850" pageHeight="1100" math="0" shadow="0">
      <root>
        <mxCell id="0" />
        <mxCell id="1" parent="0" />
        <mxCell id="mvixZwve8fwAeducHfPo-1" value="" style="swimlane;childLayout=stackLayout;horizontal=1;fillColor=none;horizontalStack=1;resizeParent=1;resizeParentMax=0;resizeLast=0;collapsible=0;strokeColor=none;stackBorder=10;stackSpacing=-12;resizable=1;align=center;points=[];fontColor=#000000;whiteSpace=wrap;html=1;startSize=0;" vertex="1" parent="1">
          <mxGeometry x="880" y="120" width="1022" height="70" as="geometry" />
        </mxCell>
        <mxCell id="mvixZwve8fwAeducHfPo-2" value="PROVISION" style="shape=step;perimeter=stepPerimeter;fixedSize=1;points=[];whiteSpace=wrap;html=1;fontSize=14;spacingLeft=10;noLabel=0;fillColor=#0050ef;strokeColor=#001DBC;fontColor=#ffffff;" vertex="1" parent="mvixZwve8fwAeducHfPo-1">
          <mxGeometry x="10" y="10" width="111" height="50" as="geometry" />
        </mxCell>
        <mxCell id="mvixZwve8fwAeducHfPo-3" value="ONBOARD" style="shape=step;perimeter=stepPerimeter;fixedSize=1;points=[];whiteSpace=wrap;html=1;fontSize=14;spacingLeft=10;noLabel=0;fillColor=#0050ef;strokeColor=#001DBC;fontColor=#ffffff;" vertex="1" parent="mvixZwve8fwAeducHfPo-1">
          <mxGeometry x="109" y="10" width="111" height="50" as="geometry" />
        </mxCell>
        <mxCell id="mvixZwve8fwAeducHfPo-4" value="BUILD" style="shape=step;perimeter=stepPerimeter;fixedSize=1;points=[];whiteSpace=wrap;html=1;fontSize=14;spacingLeft=10;noLabel=0;fillColor=#0050ef;strokeColor=#001DBC;fontColor=#ffffff;" vertex="1" parent="mvixZwve8fwAeducHfPo-1">
          <mxGeometry x="208" y="10" width="111" height="50" as="geometry" />
        </mxCell>
        <mxCell id="mvixZwve8fwAeducHfPo-5" value="PUSH" style="shape=step;perimeter=stepPerimeter;fixedSize=1;points=[];whiteSpace=wrap;html=1;fontSize=14;spacingLeft=10;noLabel=0;fillColor=#0050ef;strokeColor=#001DBC;fontColor=#ffffff;" vertex="1" parent="mvixZwve8fwAeducHfPo-1">
          <mxGeometry x="307" y="10" width="111" height="50" as="geometry" />
        </mxCell>
        <mxCell id="mvixZwve8fwAeducHfPo-6" value="PREPARE" style="shape=step;perimeter=stepPerimeter;fixedSize=1;points=[];whiteSpace=wrap;html=1;fontSize=14;spacingLeft=10;noLabel=0;fillColor=#0050ef;strokeColor=#001DBC;fontColor=#ffffff;" vertex="1" parent="mvixZwve8fwAeducHfPo-1">
          <mxGeometry x="406" y="10" width="111" height="50" as="geometry" />
        </mxCell>
        <mxCell id="mvixZwve8fwAeducHfPo-7" value="DEPLOY" style="shape=step;perimeter=stepPerimeter;fixedSize=1;points=[];whiteSpace=wrap;html=1;fontSize=14;spacingLeft=10;noLabel=0;fillColor=#0050ef;strokeColor=#001DBC;fontColor=#ffffff;" vertex="1" parent="mvixZwve8fwAeducHfPo-1">
          <mxGeometry x="505" y="10" width="111" height="50" as="geometry" />
        </mxCell>
        <mxCell id="mvixZwve8fwAeducHfPo-8" value="GENERATE" style="shape=step;perimeter=stepPerimeter;fixedSize=1;points=[];whiteSpace=wrap;html=1;fontSize=14;spacingLeft=10;noLabel=0;fillColor=#0050ef;strokeColor=#001DBC;fontColor=#ffffff;" vertex="1" parent="mvixZwve8fwAeducHfPo-1">
          <mxGeometry x="604" y="10" width="111" height="50" as="geometry" />
        </mxCell>
        <mxCell id="mvixZwve8fwAeducHfPo-9" value="RUN" style="shape=step;perimeter=stepPerimeter;fixedSize=1;points=[];whiteSpace=wrap;html=1;fontSize=14;spacingLeft=10;noLabel=0;fillColor=#0050ef;strokeColor=#001DBC;fontColor=#ffffff;" vertex="1" parent="mvixZwve8fwAeducHfPo-1">
          <mxGeometry x="703" y="10" width="111" height="50" as="geometry" />
        </mxCell>
        <mxCell id="mvixZwve8fwAeducHfPo-10" value="COLLECT" style="shape=step;perimeter=stepPerimeter;fixedSize=1;points=[];whiteSpace=wrap;html=1;fontSize=14;spacingLeft=10;noLabel=0;fillColor=#0050ef;strokeColor=#001DBC;fontColor=#ffffff;" vertex="1" parent="mvixZwve8fwAeducHfPo-1">
          <mxGeometry x="802" y="10" width="111" height="50" as="geometry" />
        </mxCell>
        <mxCell id="mvixZwve8fwAeducHfPo-11" value="EXPOSE" style="shape=step;perimeter=stepPerimeter;fixedSize=1;points=[];whiteSpace=wrap;html=1;fontSize=14;spacingLeft=10;noLabel=0;fillColor=#0050ef;strokeColor=#001DBC;fontColor=#ffffff;" vertex="1" parent="mvixZwve8fwAeducHfPo-1">
          <mxGeometry x="901" y="10" width="111" height="50" as="geometry" />
        </mxCell>
        <mxCell id="mvixZwve8fwAeducHfPo-12" value="" style="swimlane;childLayout=stackLayout;horizontal=1;fillColor=none;horizontalStack=1;resizeParent=1;resizeParentMax=0;resizeLast=0;collapsible=0;strokeColor=none;stackBorder=10;stackSpacing=-12;resizable=1;align=center;points=[];fontColor=#000000;whiteSpace=wrap;html=1;startSize=0;" vertex="1" parent="1">
          <mxGeometry x="880" y="40" width="1022" height="93" as="geometry" />
        </mxCell>
        <mxCell id="mvixZwve8fwAeducHfPo-13" value="INFRASTRUCTURE" style="shape=step;perimeter=stepPerimeter;fixedSize=1;points=[];whiteSpace=wrap;html=1;fontSize=18;spacingLeft=10;noLabel=0;fillColor=#0050ef;strokeColor=#001DBC;fontColor=#ffffff;fontStyle=1" vertex="1" parent="mvixZwve8fwAeducHfPo-12">
          <mxGeometry x="10" y="10" width="210" height="73" as="geometry" />
        </mxCell>
        <mxCell id="mvixZwve8fwAeducHfPo-14" value="REGISTRY" style="shape=step;perimeter=stepPerimeter;fixedSize=1;points=[];whiteSpace=wrap;html=1;fontSize=18;spacingLeft=10;noLabel=0;fillColor=#0050ef;strokeColor=#001DBC;fontColor=#ffffff;fontStyle=1" vertex="1" parent="mvixZwve8fwAeducHfPo-12">
          <mxGeometry x="208" y="10" width="210" height="73" as="geometry" />
        </mxCell>
        <mxCell id="mvixZwve8fwAeducHfPo-15" value="ENVIRONMENT" style="shape=step;perimeter=stepPerimeter;fixedSize=1;points=[];whiteSpace=wrap;html=1;fontSize=18;spacingLeft=10;noLabel=0;fillColor=#0050ef;strokeColor=#001DBC;fontColor=#ffffff;fontStyle=1" vertex="1" parent="mvixZwve8fwAeducHfPo-12">
          <mxGeometry x="406" y="10" width="210" height="73" as="geometry" />
        </mxCell>
        <mxCell id="mvixZwve8fwAeducHfPo-16" value="BENCHMARK" style="shape=step;perimeter=stepPerimeter;fixedSize=1;points=[];whiteSpace=wrap;html=1;fontSize=18;spacingLeft=10;noLabel=0;fillColor=#0050ef;strokeColor=#001DBC;fontColor=#ffffff;fontStyle=1" vertex="1" parent="mvixZwve8fwAeducHfPo-12">
          <mxGeometry x="604" y="10" width="210" height="73" as="geometry" />
        </mxCell>
        <mxCell id="mvixZwve8fwAeducHfPo-17" value="RESULTS" style="shape=step;perimeter=stepPerimeter;fixedSize=1;points=[];whiteSpace=wrap;html=1;fontSize=18;spacingLeft=10;noLabel=0;fillColor=#0050ef;strokeColor=#001DBC;fontColor=#ffffff;fontStyle=1" vertex="1" parent="mvixZwve8fwAeducHfPo-12">
          <mxGeometry x="802" y="10" width="210" height="73" as="geometry" />
        </mxCell>
        <mxCell id="mvixZwve8fwAeducHfPo-18" value="" style="swimlane;childLayout=stackLayout;horizontal=1;fillColor=none;horizontalStack=1;resizeParent=1;resizeParentMax=0;resizeLast=0;collapsible=0;strokeColor=none;stackBorder=10;stackSpacing=-12;resizable=1;align=center;points=[];fontColor=#000000;whiteSpace=wrap;html=1;startSize=0;" vertex="1" parent="1">
          <mxGeometry x="890" y="200" width="642" height="93" as="geometry" />
        </mxCell>
        <mxCell id="mvixZwve8fwAeducHfPo-19" value="IN&lt;br&gt;IFACE" style="shape=step;perimeter=stepPerimeter;fixedSize=1;points=[];whiteSpace=wrap;html=1;fontSize=18;spacingLeft=10;noLabel=0;fillColor=#f0a30a;strokeColor=#BD7000;fontColor=#000000;fontStyle=1" vertex="1" parent="mvixZwve8fwAeducHfPo-18">
          <mxGeometry x="10" y="10" width="90" height="73" as="geometry" />
        </mxCell>
        <mxCell id="mvixZwve8fwAeducHfPo-20" value="PRE-RUN&lt;br&gt;TASKS" style="shape=step;perimeter=stepPerimeter;fixedSize=1;points=[];whiteSpace=wrap;html=1;fontSize=18;spacingLeft=10;noLabel=0;fillColor=#fa6800;strokeColor=#C73500;fontColor=#000000;" vertex="1" parent="mvixZwve8fwAeducHfPo-18">
          <mxGeometry x="88" y="10" width="140" height="73" as="geometry" />
        </mxCell>
        <mxCell id="mvixZwve8fwAeducHfPo-21" value="PLAYBOOK TASKS" style="shape=step;perimeter=stepPerimeter;fixedSize=1;points=[];whiteSpace=wrap;html=1;fontSize=18;spacingLeft=10;noLabel=0;fillColor=#0050ef;strokeColor=#001DBC;fontColor=#ffffff;" vertex="1" parent="mvixZwve8fwAeducHfPo-18">
          <mxGeometry x="216" y="10" width="210" height="73" as="geometry" />
        </mxCell>
        <mxCell id="mvixZwve8fwAeducHfPo-22" value="POST-RUN&lt;br&gt;TASKS" style="shape=step;perimeter=stepPerimeter;fixedSize=1;points=[];whiteSpace=wrap;html=1;fontSize=18;spacingLeft=10;noLabel=0;fillColor=#fa6800;strokeColor=#C73500;fontColor=#000000;" vertex="1" parent="mvixZwve8fwAeducHfPo-18">
          <mxGeometry x="414" y="10" width="140" height="73" as="geometry" />
        </mxCell>
        <mxCell id="mvixZwve8fwAeducHfPo-23" value="&lt;span style=&quot;color: rgb(0, 0, 0);&quot;&gt;OUT&lt;/span&gt;&lt;br style=&quot;color: rgb(0, 0, 0);&quot;&gt;&lt;span style=&quot;color: rgb(0, 0, 0);&quot;&gt;STATE&lt;br&gt;&lt;/span&gt;" style="shape=step;perimeter=stepPerimeter;fixedSize=1;points=[];whiteSpace=wrap;html=1;fontSize=18;spacingLeft=10;noLabel=0;fillColor=#f0a30a;strokeColor=#BD7000;fontColor=#000000;fontStyle=1" vertex="1" parent="mvixZwve8fwAeducHfPo-18">
          <mxGeometry x="542" y="10" width="90" height="73" as="geometry" />
        </mxCell>
        <mxCell id="mvixZwve8fwAeducHfPo-24" value="INVENTORY INTERFACE" style="swimlane;startSize=20;horizontal=0;childLayout=treeLayout;horizontalTree=1;resizable=0;containerType=tree;fontSize=12;" vertex="1" parent="1">
          <mxGeometry x="900" y="310" width="310" height="240" as="geometry" />
        </mxCell>
        <mxCell id="mvixZwve8fwAeducHfPo-25" value="INVENTORY&lt;br&gt;PLUGIN" style="whiteSpace=wrap;html=1;" vertex="1" parent="mvixZwve8fwAeducHfPo-24">
          <mxGeometry x="40" y="100" width="100" height="40" as="geometry" />
        </mxCell>
        <mxCell id="mvixZwve8fwAeducHfPo-26" value="CMD LINE&lt;br&gt;VARIABLES" style="whiteSpace=wrap;html=1;" vertex="1" parent="mvixZwve8fwAeducHfPo-24">
          <mxGeometry x="190" y="20" width="100" height="40" as="geometry" />
        </mxCell>
        <mxCell id="mvixZwve8fwAeducHfPo-27" value="" style="edgeStyle=elbowEdgeStyle;elbow=vertical;html=1;rounded=1;curved=0;sourcePerimeterSpacing=0;targetPerimeterSpacing=0;startSize=6;endSize=6;" edge="1" parent="mvixZwve8fwAeducHfPo-24" source="mvixZwve8fwAeducHfPo-25" target="mvixZwve8fwAeducHfPo-26">
          <mxGeometry relative="1" as="geometry">
            <Array as="points">
              <mxPoint x="90" y="40" />
            </Array>
          </mxGeometry>
        </mxCell>
        <mxCell id="mvixZwve8fwAeducHfPo-28" value="STATE&lt;br&gt;VARIABLES" style="whiteSpace=wrap;html=1;" vertex="1" parent="mvixZwve8fwAeducHfPo-24">
          <mxGeometry x="190" y="100" width="100" height="40" as="geometry" />
        </mxCell>
        <mxCell id="mvixZwve8fwAeducHfPo-29" value="" style="edgeStyle=elbowEdgeStyle;elbow=vertical;html=1;rounded=1;curved=0;sourcePerimeterSpacing=0;targetPerimeterSpacing=0;startSize=6;endSize=6;" edge="1" parent="mvixZwve8fwAeducHfPo-24" source="mvixZwve8fwAeducHfPo-25" target="mvixZwve8fwAeducHfPo-28">
          <mxGeometry relative="1" as="geometry" />
        </mxCell>
        <mxCell id="mvixZwve8fwAeducHfPo-30" value="" style="edgeStyle=elbowEdgeStyle;elbow=vertical;html=1;rounded=1;curved=0;sourcePerimeterSpacing=0;targetPerimeterSpacing=0;startSize=6;endSize=6;" edge="1" parent="mvixZwve8fwAeducHfPo-24" source="mvixZwve8fwAeducHfPo-25" target="mvixZwve8fwAeducHfPo-31">
          <mxGeometry relative="1" as="geometry">
            <mxPoint x="180" y="640" as="sourcePoint" />
            <Array as="points">
              <mxPoint x="90" y="200" />
            </Array>
          </mxGeometry>
        </mxCell>
        <mxCell id="mvixZwve8fwAeducHfPo-31" value="DEFAULT&lt;br&gt;VARIABLES" style="whiteSpace=wrap;html=1;" vertex="1" parent="mvixZwve8fwAeducHfPo-24">
          <mxGeometry x="190" y="180" width="100" height="40" as="geometry" />
        </mxCell>
      </root>
    </mxGraphModel>
  </diagram>
</mxfile>
